<svg xmlns="http://www.w3.org/2000/svg" viewBox="0 0 800 420" role="img" aria-label="Vals AI Finance Agent Benchmark leaderboard grouped by agent stack">
  <style>
    text { font-family: -apple-system, BlinkMacSystemFont, "Segoe UI", Roboto, "Helvetica Neue", Arial, sans-serif; }
    .title { fill: #0f172a; font-size: 16px; font-weight: 700; }
    .subtitle { fill: #64748b; font-size: 12px; }
    .group-header { fill: #0f172a; font-size: 12px; font-weight: 700; letter-spacing: 0.04em; text-transform: uppercase; }
    .group-rule { stroke: #cbd5e1; stroke-width: 1; }
    .stack-note { fill: #64748b; font-size: 11px; font-style: italic; }
    .label-cb { fill: #0f172a; font-size: 13px; font-weight: 700; }
    .label { fill: #475569; font-size: 13px; }
    .axis { fill: #94a3b8; font-size: 11px; }
    .grid { stroke: #e2e8f0; stroke-width: 1; }
    .axis-line { stroke: #cbd5e1; stroke-width: 1; }
    .bar-coral { fill: #e15a3a; }
    .bar-gray { fill: #cbd5e1; }
    .value-cb { fill: #c23d3d; font-size: 13px; font-weight: 700; }
    .value { fill: #475569; font-size: 12px; font-weight: 600; }
    .caption { fill: #94a3b8; font-size: 11px; font-style: italic; }
  </style>

  <!-- Reusable logo symbols. All paths inlined so the SVG renders fully
       when served via <img> (no external image fetches allowed).
       Anthropic / DeepSeek / Meta paths from simpleicons.org (CC0).
       Coral Bricks paths from /public/logo-icon.svg. -->
  <defs>
    <!-- Anthropic — official "A" wordmark, recolored to brand coral. -->
    <symbol id="logo-anthropic" viewBox="0 0 24 24">
      <path fill="#cc785c"
            d="M17.3041 3.541h-3.6718l6.696 16.918H24Zm-10.6082 0L0 20.459h3.7442l1.3693-3.5527h7.0052l1.3693 3.5528h3.7442L10.5363 3.5409Zm-.3712 10.2232 2.2914-5.9456 2.2914 5.9456Z"/>
    </symbol>

    <!-- DeepSeek — official whale mark. -->
    <symbol id="logo-deepseek" viewBox="0 0 24 24">
      <path fill="#4D6BFE"
            d="M23.748 4.651c-.254-.124-.364.113-.512.233-.051.04-.094.09-.137.137-.372.397-.806.657-1.373.626-.829-.046-1.537.214-2.163.848-.133-.782-.575-1.248-1.247-1.548-.352-.155-.708-.311-.955-.65-.172-.24-.219-.509-.305-.774-.055-.16-.11-.323-.293-.35-.2-.031-.278.136-.356.276-.313.572-.434 1.202-.422 1.84.027 1.436.633 2.58 1.838 3.393.137.094.172.187.129.323-.082.28-.18.553-.266.833-.055.179-.137.218-.328.14a5.5 5.5 0 0 1-1.737-1.179c-.857-.828-1.631-1.743-2.597-2.46a12 12 0 0 0-.689-.47c-.985-.957.13-1.743.387-1.836.27-.098.094-.433-.778-.428-.872.003-1.67.295-2.687.685a3 3 0 0 1-.465.136 9.6 9.6 0 0 0-2.883-.101c-1.885.21-3.39 1.1-4.497 2.622C.082 8.776-.231 10.854.152 13.02c.403 2.284 1.568 4.175 3.36 5.653 1.857 1.533 3.997 2.284 6.438 2.14 1.482-.085 3.132-.284 4.994-1.86.47.234.962.328 1.78.398.629.058 1.235-.031 1.705-.129.735-.155.684-.836.418-.961-2.155-1.004-1.682-.595-2.112-.926 1.095-1.295 2.768-3.598 3.284-6.733.05-.346.115-.834.108-1.114-.004-.171.035-.238.23-.257a4.2 4.2 0 0 0 1.545-.475c1.397-.763 1.96-2.016 2.093-3.517.02-.23-.004-.467-.247-.588M11.58 18.168c-2.088-1.642-3.101-2.183-3.52-2.16-.39.024-.32.472-.234.763.09.288.207.487.371.74.114.167.192.416-.113.603-.673.416-1.842-.14-1.897-.168-1.361-.801-2.5-1.86-3.301-3.306-.775-1.393-1.225-2.888-1.299-4.482-.02-.385.094-.522.477-.592a4.7 4.7 0 0 1 1.53-.038c2.131.311 3.946 1.264 5.467 2.774.868.86 1.525 1.887 2.202 2.89.72 1.066 1.494 2.082 2.48 2.915.348.291.626.513.892.677-.802.09-2.14.109-3.055-.615zm1.001-6.44a.306.306 0 0 1 .415-.287.3.3 0 0 1 .113.074.3.3 0 0 1 .086.214c0 .17-.136.307-.308.307a.303.303 0 0 1-.306-.307m3.11 1.596c-.2.081-.4.151-.591.16a1.25 1.25 0 0 1-.798-.254c-.274-.23-.47-.358-.551-.758a1.7 1.7 0 0 1 .015-.588c.07-.327-.007-.537-.238-.727-.188-.156-.426-.199-.689-.199a.6.6 0 0 1-.254-.078.253.253 0 0 1-.114-.358 1 1 0 0 1 .192-.21c.356-.202.767-.136 1.146.016.352.144.618.408 1.001.782.392.451.462.576.685.915.176.264.336.536.446.848.066.194-.02.353-.25.45"/>
    </symbol>

    <!-- Meta — official "infinity" mark from simpleicons. -->
    <symbol id="logo-meta" viewBox="0 0 24 24">
      <path fill="#0467DF"
            d="M6.915 4.03c-1.968 0-3.683 1.28-4.871 3.113C.704 9.208 0 11.883 0 14.449c0 .706.07 1.369.21 1.973a6.624 6.624 0 0 0 .265.86 5.297 5.297 0 0 0 .371.761c.696 1.159 1.818 1.927 3.593 1.927 1.497 0 2.633-.671 3.965-2.444.76-1.012 1.144-1.626 2.663-4.32l.756-1.339.186-.325c.061.1.121.196.183.3l2.152 3.595c.724 1.21 1.665 2.556 2.47 3.314 1.046.987 1.992 1.22 3.06 1.22 1.075 0 1.876-.355 2.455-.843a3.743 3.743 0 0 0 .81-.973c.542-.939.861-2.127.861-3.745 0-2.72-.681-5.357-2.084-7.45-1.282-1.912-2.957-2.93-4.716-2.93-1.047 0-2.088.467-3.053 1.308-.652.57-1.257 1.29-1.82 2.05-.69-.875-1.335-1.547-1.958-2.056-1.182-.966-2.315-1.303-3.454-1.303zm10.16 2.053c1.147 0 2.188.758 2.992 1.999 1.132 1.748 1.647 4.195 1.647 6.4 0 1.548-.368 2.9-1.839 2.9-.58 0-1.027-.23-1.664-1.004-.496-.601-1.343-1.878-2.832-4.358l-.617-1.028a44.908 44.908 0 0 0-1.255-1.98c.07-.109.141-.224.211-.327 1.12-1.667 2.118-2.602 3.358-2.602zm-10.201.553c1.265 0 2.058.791 2.675 1.446.307.327.737.871 1.234 1.579l-1.02 1.566c-.757 1.163-1.882 3.017-2.837 4.338-1.191 1.649-1.81 1.817-2.486 1.817-.524 0-1.038-.237-1.383-.794-.263-.426-.464-1.13-.464-2.046 0-2.221.63-4.535 1.66-6.088.454-.687.964-1.226 1.533-1.533a2.264 2.264 0 0 1 1.088-.285z"/>
    </symbol>

    <!-- Moonshot AI / Kimi — simple crescent moon mark. -->
    <symbol id="logo-moonshot" viewBox="0 0 24 24">
      <path fill="#111827"
            d="M14 2a10 10 0 1 0 8 16 8 8 0 1 1-8-12 8 8 0 0 1 0-4z"/>
    </symbol>

    <!-- Coral Bricks — full magnifying-glass + coral wordmark. -->
    <symbol id="logo-coral" viewBox="0 0 579.22 636.72">
      <path fill="#d44027"
            d="M172.63,516.24c-24.46,30.69-48.57,61.66-73.38,92.06-9.71,11.89-21.28,22.05-36.68,26.47-26.17,7.5-53.93-7.3-60.79-32.66-4.22-15.58-.85-30.14,9.47-42.04,14.6-16.83,30-33.02,45.74-48.8,39.06-39.17,78.51-77.95,117.8-116.9.56-.55,1.06-1.15,1.75-1.95.33-.38.33-.96-.01-1.33-15.02-16.44-27.43-34.28-36.99-54.06-11.88-24.57-19.21-50.38-21.46-77.62-4.41-53.37,6.66-103.14,36.21-147.96C192.41,53.6,245.54,16.8,313.98,4.46c74.65-13.45,142.43,3.5,202.13,50.7,17.98,14.22,33.33,31.1,46.23,50.12.93,1.37,1.8,2.79,2.65,4.22,5.96,10.06,5.01,18.05-2.86,24.38-7.9,6.35-18.75,6.08-26.25-1.58-6.73-6.88-12.39-14.79-18.95-21.86-32.63-35.19-72.08-58.34-119.75-66.18-59.42-9.77-113.76,2.45-161.13,40.29-36.21,28.92-60.7,65.89-69.55,111.88-10.69,55.54,2.34,105.79,36.8,150.32,29.87,38.6,69.56,61.96,117.39,70.21,62.29,10.74,118.04-5.12,166-46.15,24.44-20.91,41.09-47.61,51.56-78.11,5.03-14.66,18.29-19.87,30.8-12.35,7.32,4.4,11.51,14.25,9.77,22.88-4.85,24-15.56,45.44-29.72,65.08-36.97,51.28-86.44,83.21-148.95,93.95-58.84,10.11-114.65,1.55-166.67-28.59-.19-.11-.4-.17-.78-.29-.4-.12-.84,0-1.09.34"/>
      <path fill="#d44027"
            d="M439.32,319.87c-.4,1.08.33,2.26,1.47,2.36,6.96.61,12.43-1.44,17.87-4.31,6.25-3.3,12.56-6.72,19.24-8.88,6.27-2.03,11.87.84,14.59,5.72,2.98,5.35,2.34,11.83-1.95,16.66-6.16,6.94-14.7,8.54-23.27,9.89-13.09,2.06-26.52,3.07-38.48,9.26-5.78,3-10.94,7.43-15.84,11.81-2.01,1.8-3.15,5.08-3.73,7.88-1.13,5.46,2.73,9.06,8.22,7.98,2.26-.44,4.45-1.31,6.59-2.19,7.04-2.88,14.09-3.62,21.28-.6,4.42,1.85,8.65,1.18,12.09-1.98,9.33-8.55,19.94-8.47,31.08-6.07,1.12.24,1.74,1.48,1.21,2.5-13.09,25.59-73.68,59.28-113.93,63.41-63.45,6.52-116.79-12.39-159.17-59.43l2.04-2.76h0c9.41,4.42,18.88,5.74,28.86,1.59,8.61-3.58,17.42-3.69,26.21-.21,4.56,1.8,8.81.89,12.61-2.09,8.16-6.39,15.17-6.61,23.65-.65,1.09.76,2.1,2.12,3.24,2.24,3.12.33,6.71,1.05,9.29-.16,1.7-.8,2.9-4.74,2.71-7.14-.85-10.44-7.04-17.25-16.3-21.43-10.11-4.56-20.99-4.4-31.76-5.02-9.45-.55-18.96-.82-28.3-2.21-6.76-1.01-13.04-3.99-16.81-10.43-3.39-5.79-3.26-13.19.36-17.88,3.86-4.99,10.2-6.93,17.08-4.48,4.17,1.48,7.86,4.25,11.98,5.89,6.08,2.42,12.26,4.81,18.61,6.23,2.31.51,6.3-1.14,7.54-3.08.9-1.4-.83-5.43-2.47-7.37-6.82-8.04-15.79-12.91-25.54-16.73-9.84-3.85-19.79-7.66-29.02-12.73-9.52-5.23-16.32-13.57-20.09-23.97-3.17-8.75-.69-16.94,5.81-20.07,7.13-3.43,14.67-.63,20.13,7.19,3.96,5.68,8.09,11.25,12.39,16.67,1.17,1.48,3.14,2.41,4.87,3.35,3.52,1.9,7.89,3.4,10.45-.16,1.79-2.48,2.24-7.03,1.36-10.09-1.55-5.34-4.68-10.2-6.96-15.35-.99-2.25-1.88-4.66-2.15-7.08-.75-6.86,2.68-12.68,8.4-14.92,6.47-2.53,15.7-.19,19.38,6.33,3.44,6.1,6.58,12.93,7.53,19.75,2.52,18.09,10.64,33.36,21.35,47.53,4.89,6.46,10.16,12.68,15.75,18.53,2.28,2.38,5.65,6.01,9.43,2.92,4.16-3.39,1.87-7.78-.4-11.23-2.73-4.15-6.21-7.79-9.24-11.75-2-2.62-4-5.28-5.56-8.16-2.12-3.93-1.71-7.77,1.92-10.74,3.33-2.72,8.43-2.64,12.03.37,2.54,2.12,4.52,4.94,7.1,7,1.25,1,2.87,1.53,4.46,2.11.83.3,1.76-.06,2.16-.85.75-1.48,1.61-2.99,1.36-4.27-1.89-9.36-3.85-18.75-6.58-27.89-4.4-14.73-14.17-26.03-24.44-37.1-6.84-7.37-13.07-15.48-18.51-23.94-4.22-6.56-5.82-14.38-5.34-22.43.48-8.02,5.07-13.66,12.26-14.79,7.24-1.14,14.01,3.14,16.52,10.63,2.2,6.57,3.87,13.34,6.43,19.76,1.24,3.11,3.64,5.99,6.12,8.33,4.35,4.09,8.47,3.38,11.49-1.82,4.37-7.51,4.23-15.76,3.88-24.18-.4-9.59-.92-19.37.55-28.77,1.7-10.94,10.91-16.23,21.37-14.21,8.74,1.69,14.92,10.98,12.98,21.08-3.96,20.6-8.99,41-13.02,61.59-.04.18-.03.36-.02.54.25,2.58-1.59,8.55.08,12.45,1.34,3.12,3.45,7.49,5.99,8.09,2.63.62,6.9-1.93,9.19-4.31,7.67-7.97,10.28-18.35,12.19-28.9.44-2.44.68-4.92,1.17-7.35,1.34-6.68,5.47-10.56,11.66-11.09,6.71-.57,11.89,2.64,14.33,9.12,3.98,10.54,1.86,20.98-2.74,30.4-5.36,10.96-11.75,21.59-18.94,31.45-11.1,15.21-16.6,31.62-14.41,50.37.44,3.74,1.29,7.55,2.69,11.03,2.49,6.19,5.99,7.26,11.79,3.91,13.73-7.93,24.14-19.23,32.27-32.67,6.94-11.48,9.94-24,10.44-37.43.21-5.59,1.91-11.53,4.46-16.53,3.79-7.42,12.88-9.84,20.31-6.65,6.75,2.9,10.09,10.25,7.55,18.51-1.79,5.82-4.77,11.27-7.04,16.95-1.16,2.9-2.69,5.95-2.65,8.92.03,2.43,1.59,5.59,3.52,6.98,1.43,1.03,5.24.57,6.76-.7,3.64-3.04,6.89-6.7,9.69-10.55,6.18-8.5,16.12-10.68,22.66-4.48,4.56,4.32,5.62,9.61,3.78,15.53-3.49,11.21-11.96,17.88-21.92,22.57-8.51,4.01-17.55,6.9-26.34,10.32-12.92,5.03-23.22,13.41-31.18,24.69-.75,1.06-1.19,2.33-1.75,3.84Z"/>
    </symbol>
  </defs>

  <text x="400" y="26" text-anchor="middle" class="title">Vals AI Finance Agent Benchmark</text>

  <!-- Layout:
       Labels right-aligned ending at x=255.
       Logos at x=260 (20×20, centered vertically on each bar).
       Bars from x=290 to x=730 (440 wide; 1% = 4.4px).
       X-axis ticks: 0=290, 25=400, 50=510, 75=620, 100=730.
       Two groups stacked: Coral Bricks (1 row) then Vals AI default (5 rows). -->

  <!-- Vertical grid lines span both groups -->
  <line x1="290" y1="70" x2="290" y2="360" class="grid"/>
  <line x1="400" y1="70" x2="400" y2="360" class="grid"/>
  <line x1="510" y1="70" x2="510" y2="360" class="grid"/>
  <line x1="620" y1="70" x2="620" y2="360" class="grid"/>
  <line x1="730" y1="70" x2="730" y2="360" class="grid"/>

  <!-- ===== Group 1: AlphaCumen · domain-specific finance agent ===== -->
  <text x="40" y="62" class="group-header">AlphaCumen · domain-specific finance agent (7 agents · 69 skills · 4 datasets)</text>
  <line x1="40" y1="70" x2="760" y2="70" class="group-rule"/>

  <!-- Row 1: Kimi K2.6 on Coral — 90% (bar 396) -->
  <text x="255" y="96" text-anchor="end" class="label-cb">Kimi K2.6 on Coral</text>
  <use href="#logo-coral" x="262" y="83" width="20" height="20"/>
  <rect x="290" y="82" width="396" height="22" class="bar-coral" rx="2"/>
  <text x="692" y="98" class="value-cb">90.0%</text>

  <!-- ===== Group 2: Vals AI default · generic agent harness ===== -->
  <text x="40" y="148" class="group-header">Vals AI default · generic agent (1 agent · 4 tools · 2 datasets)</text>
  <line x1="40" y1="156" x2="760" y2="156" class="group-rule"/>

  <!-- Row 2: Claude Opus 4.7 — 64.4% (bar 283) -->
  <text x="255" y="182" text-anchor="end" class="label">Claude Opus 4.7</text>
  <use href="#logo-anthropic" x="262" y="169" width="20" height="20"/>
  <rect x="290" y="168" width="283" height="22" class="bar-gray" rx="2"/>
  <text x="579" y="184" class="value">64.4%</text>

  <!-- Row 3: Claude Sonnet 4.6 — 63.3% (bar 279) -->
  <text x="255" y="216" text-anchor="end" class="label">Claude Sonnet 4.6</text>
  <use href="#logo-anthropic" x="262" y="203" width="20" height="20"/>
  <rect x="290" y="202" width="279" height="22" class="bar-gray" rx="2"/>
  <text x="575" y="218" class="value">63.3%</text>

  <!-- Row 4: Muse Spark — 60.6% (bar 267) -->
  <text x="255" y="250" text-anchor="end" class="label">Muse Spark</text>
  <use href="#logo-meta" x="262" y="237" width="20" height="20"/>
  <rect x="290" y="236" width="267" height="22" class="bar-gray" rx="2"/>
  <text x="563" y="252" class="value">60.6%</text>

  <!-- Row 5: DeepSeek V4 — 60.4% (bar 266) -->
  <text x="255" y="284" text-anchor="end" class="label">DeepSeek V4</text>
  <use href="#logo-deepseek" x="262" y="271" width="20" height="20"/>
  <rect x="290" y="270" width="266" height="22" class="bar-gray" rx="2"/>
  <text x="562" y="286" class="value">60.4%</text>

  <!-- Row 6: Kimi K2.6 — 57.1% (bar 251) -->
  <text x="255" y="318" text-anchor="end" class="label">Kimi K2.6</text>
  <use href="#logo-moonshot" x="262" y="305" width="20" height="20"/>
  <rect x="290" y="304" width="251" height="22" class="bar-gray" rx="2"/>
  <text x="547" y="320" class="value">57.1%</text>

  <!-- X-axis -->
  <line x1="290" y1="360" x2="730" y2="360" class="axis-line"/>
  <text x="290" y="378" text-anchor="middle" class="axis">0%</text>
  <text x="400" y="378" text-anchor="middle" class="axis">25%</text>
  <text x="510" y="378" text-anchor="middle" class="axis">50%</text>
  <text x="620" y="378" text-anchor="middle" class="axis">75%</text>
  <text x="730" y="378" text-anchor="middle" class="axis">100%</text>

  <text x="400" y="402" text-anchor="middle" class="caption">Groups labeled by agent stack, not model. Generic group uses the Vals AI default tool stack on each base model.</text>
</svg>
